CrispyThin100-MaxGrade.ufo
<glyph name="hyphen" format="2">
  <advance width="160"/>
  <unicode hex="002D"/>
  <outline>
    <contour>
      <point x="20" y="799" type="line"/>
      <point x="140" y="799" type="line"/>
      <point x="140" y="801" type="line"/>
      <point x="20" y="801" type="line"/>
    </contour>
  </outline>
</glyph>
<glyph name="seven" format="2">
  <advance width="169"/>
  <unicode hex="0037"/>
  <outline>
    <contour>
      <point x="77" y="-51" type="line"/>
      <point x="79" y="-51" type="line"/>
      <point x="139" y="1490" type="line"/>
      <point x="139" y="1600" type="line"/>
      <point x="38" y="1600" type="line"/>
      <point x="38" y="1159" type="line"/>
      <point x="41" y="1159" type="line"/>
      <point x="41" y="1598" type="line"/>
      <point x="136" y="1598" type="line"/>
      <point x="136" y="1495" type="line"/>
    </contour>
  </outline>
</glyph>
<glyph name="C" format="2">
  <advance width="168"/>
  <unicode hex="0043"/>
  <outline>
    <contour>
      <point x="35" y="0" type="line"/>
      <point x="136" y="0" type="line"/>
      <point x="136" y="612" type="line"/>
      <point x="133" y="612" type="line"/>
      <point x="133" y="2" type="line"/>
      <point x="38" y="2" type="line"/>
      <point x="38" y="1436" type="line"/>
      <point x="73" y="1598" type="line"/>
      <point x="133" y="1598" type="line"/>
      <point x="133" y="990" type="line"/>
      <point x="136" y="990" type="line"/>
      <point x="136" y="1600" type="line"/>
      <point x="70" y="1600" type="line"/>
      <point x="35" y="1436" type="line"/>
    </contour>
  </outline>
</glyph>
<glyph name="D" format="2">
  <advance width="167"/>
  <unicode hex="0044"/>
  <outline>
    <contour>
      <point x="35" y="0" type="line"/>
      <point x="103" y="0" type="line"/>
      <point x="138" y="164" type="line"/>
      <point x="138" y="1600" type="line"/>
      <point x="35" y="1600" type="line"/>
    </contour>
    <contour>
      <point x="38" y="2" type="line"/>
      <point x="38" y="1598" type="line"/>
      <point x="135" y="1598" type="line"/>
      <point x="135" y="164" type="line"/>
      <point x="100" y="2" type="line"/>
    </contour>
  </outline>
</glyph>
<glyph name="J" format="2">
  <advance width="161"/>
  <unicode hex="004A"/>
  <outline>
    <contour>
      <point x="33" y="0" type="line"/>
      <point x="113" y="0" type="line"/>
      <point x="113" y="1600" type="line"/>
      <point x="111" y="1600" type="line"/>
      <point x="111" y="2" type="line"/>
      <point x="36" y="2" type="line"/>
      <point x="36" y="571" type="line"/>
      <point x="33" y="571" type="line"/>
    </contour>
  </outline>
</glyph>
<glyph name="P" format="2">
  <advance width="179"/>
  <unicode hex="0050"/>
  <outline>
    <contour>
      <point x="48" y="0" type="line"/>
      <point x="50" y="0" type="line"/>
      <point x="50" y="651" type="line"/>
      <point x="110" y="651" type="line"/>
      <point x="145" y="811" type="line"/>
      <point x="145" y="1600" type="line"/>
      <point x="48" y="1600" type="line"/>
    </contour>
    <contour>
      <point x="50" y="653" type="line"/>
      <point x="50" y="1598" type="line"/>
      <point x="142" y="1598" type="line"/>
      <point x="142" y="811" type="line"/>
      <point x="107" y="653" type="line"/>
    </contour>
  </outline>
</glyph>
<glyph name="S" format="2">
  <advance width="161"/>
  <unicode hex="0053"/>
  <outline>
    <contour>
      <point x="31" y="0" type="line"/>
      <point x="98" y="0" type="line"/>
      <point x="131" y="155" type="line"/>
      <point x="131" y="801" type="line"/>
      <point x="32" y="801" type="line"/>
      <point x="32" y="1437" type="line"/>
      <point x="67" y="1598" type="line"/>
      <point x="115" y="1598" type="line"/>
      <point x="115" y="1040" type="line"/>
      <point x="117" y="1040" type="line"/>
      <point x="117" y="1600" type="line"/>
      <point x="64" y="1600" type="line"/>
      <point x="29" y="1437" type="line"/>
      <point x="29" y="799" type="line"/>
      <point x="129" y="799" type="line"/>
      <point x="129" y="155" type="line"/>
      <point x="95" y="2" type="line"/>
      <point x="34" y="2" type="line"/>
      <point x="34" y="562" type="line"/>
      <point x="31" y="562" type="line"/>
    </contour>
  </outline>
</glyph>
<glyph name="U" format="2">
  <advance width="196"/>
  <unicode hex="0055"/>
  <outline>
    <contour>
      <point x="48" y="0" type="line" smooth="yes"/>
      <point x="149" y="0" type="line" smooth="yes"/>
      <point x="149" y="1600" type="line" smooth="yes"/>
      <point x="146" y="1600" type="line" smooth="yes"/>
      <point x="146" y="2" type="line"/>
      <point x="50" y="2" type="line" smooth="yes"/>
      <point x="50" y="1600" type="line"/>
      <point x="48" y="1600" type="line" smooth="yes"/>
    </contour>
  </outline>
</glyph>
<glyph name="a" format="2">
  <advance width="158"/>
  <unicode hex="0061"/>
  <outline>
    <contour>
      <point x="28" y="0" type="line"/>
      <point x="97" y="0" type="line"/>
      <point x="118" y="0" type="line"/>
      <point x="118" y="0" type="line"/>
      <point x="121" y="0" type="line"/>
      <point x="121" y="1200" type="line"/>
      <point x="69" y="1200" type="line"/>
      <point x="28" y="925" type="line"/>
    </contour>
    <contour>
      <point x="31" y="2" type="line"/>
      <point x="31" y="924" type="line"/>
      <point x="72" y="1198" type="line"/>
      <point x="118" y="1198" type="line"/>
      <point x="118" y="2" type="line"/>
    </contour>
  </outline>
</glyph>
<glyph name="c" format="2">
  <advance width="124"/>
  <unicode hex="0063"/>
  <outline>
    <contour>
      <point x="31" y="0" type="line"/>
      <point x="31" y="1038" type="line"/>
      <point x="66" y="1200" type="line"/>
      <point x="100" y="1200" type="line"/>
      <point x="100" y="1198" type="line"/>
      <point x="68" y="1198" type="line"/>
      <point x="34" y="1036" type="line"/>
      <point x="34" y="2" type="line"/>
      <point x="99" y="2" type="line"/>
      <point x="101" y="0" type="line"/>
    </contour>
  </outline>
</glyph>
<glyph name="f" format="2">
  <advance width="107"/>
  <unicode hex="0066"/>
  <outline>
    <contour>
      <point x="38" y="0" type="line"/>
      <point x="38" y="1530" type="line"/>
      <point x="92" y="1700" type="line"/>
      <point x="114" y="1700" type="line"/>
      <point x="114" y="1697" type="line"/>
      <point x="95" y="1697" type="line"/>
      <point x="40" y="1530" type="line"/>
      <point x="40" y="0" type="line"/>
    </contour>
    <contour>
      <point x="10" y="918" type="line"/>
      <point x="10" y="920" type="line"/>
      <point x="17" y="920" type="line"/>
      <point x="30" y="920" type="line"/>
      <point x="73" y="920" type="line"/>
      <point x="102" y="920" type="line"/>
      <point x="102" y="918" type="line"/>
    </contour>
  </outline>
</glyph>
<glyph name="m" format="2">
  <advance width="242"/>
  <unicode hex="006D"/>
  <outline>
    <contour>
      <point x="31" y="0" type="line"/>
      <point x="34" y="0" type="line"/>
      <point x="34" y="1036" type="line"/>
      <point x="68" y="1198" type="line"/>
      <point x="119" y="1198" type="line"/>
      <point x="119" y="0" type="line"/>
      <point x="122" y="0" type="line"/>
      <point x="122" y="1200" type="line"/>
      <point x="66" y="1200" type="line"/>
      <point x="31" y="1038" type="line"/>
    </contour>
    <contour>
      <point x="203" y="0" type="line"/>
      <point x="206" y="0" type="line"/>
      <point x="206" y="1200" type="line"/>
      <point x="155" y="1200" type="line"/>
      <point x="116" y="1200" type="line"/>
      <point x="116" y="1198" type="line"/>
      <point x="203" y="1198" type="line"/>
    </contour>
  </outline>
</glyph>
<glyph name="n" format="2">
  <advance width="164"/>
  <unicode hex="006E"/>
  <outline>
    <contour>
      <point x="31" y="0" type="line"/>
      <point x="34" y="0" type="line"/>
      <point x="34" y="1036" type="line"/>
      <point x="68" y="1198" type="line"/>
      <point x="125" y="1198" type="line"/>
      <point x="125" y="0" type="line"/>
      <point x="128" y="0" type="line"/>
      <point x="128" y="1200" type="line"/>
      <point x="66" y="1200" type="line"/>
      <point x="31" y="1038" type="line"/>
    </contour>
  </outline>
</glyph>
<glyph name="r" format="2">
  <advance width="102"/>
  <unicode hex="0072"/>
  <outline>
    <contour>
      <point x="97" y="1198" type="line"/>
      <point x="68" y="1198" type="line"/>
      <point x="34" y="1036" type="line"/>
      <point x="34" y="0" type="line"/>
      <point x="31" y="0" type="line"/>
      <point x="31" y="1038" type="line"/>
      <point x="66" y="1200" type="line"/>
      <point x="97" y="1200" type="line"/>
    </contour>
  </outline>
</glyph>
<glyph name="t" format="2">
  <advance width="105"/>
  <unicode hex="0074"/>
  <outline>
    <contour>
      <point x="31" y="0" type="line" smooth="yes"/>
      <point x="100" y="0" type="line"/>
      <point x="100" y="2" type="line"/>
      <point x="34" y="2" type="line" smooth="yes"/>
      <point x="34" y="1600" type="line"/>
      <point x="31" y="1600" type="line" smooth="yes"/>
    </contour>
    <contour>
      <point x="33" y="1197" type="line"/>
      <point x="105" y="1197" type="line"/>
      <point x="105" y="1200" type="line"/>
      <point x="75" y="1200" type="line"/>
      <point x="33" y="1199" type="line"/>
    </contour>
  </outline>
</glyph>
<glyph name="z" format="2">
  <advance width="94"/>
  <unicode hex="007A"/>
  <outline>
    <contour>
      <point x="8" y="0" type="line"/>
      <point x="82" y="0" type="line"/>
      <point x="82" y="2" type="line"/>
      <point x="11" y="2" type="line"/>
      <point x="11" y="82" type="line"/>
      <point x="83" y="1130" type="line"/>
      <point x="83" y="1200" type="line"/>
      <point x="14" y="1200" type="line"/>
      <point x="14" y="1198" type="line"/>
      <point x="81" y="1198" type="line"/>
      <point x="81" y="1130" type="line"/>
      <point x="8" y="83" type="line"/>
    </contour>
  </outline>
</glyph>
<glyph name="paragraph" format="2">
  <advance width="211"/>
  <unicode hex="00B6"/>
  <outline>
    <contour>
      <point x="93" y="-4" type="line"/>
      <point x="95" y="-4" type="line"/>
      <point x="95" y="1600" type="line"/>
      <point x="93" y="1600" type="line"/>
    </contour>
    <contour>
      <point x="167" y="-4" type="line"/>
      <point x="169" y="-4" type="line"/>
      <point x="169" y="1600" type="line"/>
      <point x="167" y="1600" type="line"/>
    </contour>
    <contour>
      <point x="4" y="1120" type="line"/>
      <point x="93" y="1120" type="line"/>
      <point x="93" y="1600" type="line"/>
      <point x="37" y="1600" type="line"/>
      <point x="4" y="1543" type="line"/>
    </contour>
    <contour>
      <point x="86" y="1598" type="line"/>
      <point x="168" y="1598" type="line"/>
      <point x="168" y="1600" type="line"/>
      <point x="86" y="1600" type="line"/>
    </contour>
  </outline>
</glyph>
<glyph name="Eth" format="2">
  <advance width="167"/>
  <unicode hex="00D0"/>
  <outline>
    <contour>
      <point x="4" y="794" type="line"/>
      <point x="86" y="794" type="line"/>
      <point x="86" y="796" type="line"/>
      <point x="4" y="796" type="line"/>
    </contour>
    <component base="D"/>
  </outline>
</glyph>
<glyph name="product" format="2">
  <advance width="188"/>
  <unicode hex="220F"/>
  <outline>
    <contour>
      <point x="48" y="-170" type="line"/>
      <point x="50" y="-170" type="line"/>
      <point x="50" y="1598" type="line"/>
      <point x="137" y="1598" type="line"/>
      <point x="137" y="-170" type="line"/>
      <point x="140" y="-170" type="line"/>
      <point x="140" y="1600" type="line"/>
      <point x="48" y="1600" type="line"/>
    </contour>
  </outline>
</glyph>
<glyph name="minus" format="2">
  <advance width="236"/>
  <unicode hex="2212"/>
  <outline>
    <contour>
      <point x="12" y="799" type="line"/>
      <point x="223" y="799" type="line"/>
      <point x="223" y="801" type="line"/>
      <point x="12" y="801" type="line"/>
    </contour>
  </outline>
</glyph>
<glyph name="G.wide" format="2">
  <advance width="177"/>
  <outline>
    <contour>
      <point x="35" y="0" type="line"/>
      <point x="136" y="0" type="line"/>
      <point x="136" y="801" type="line"/>
      <point x="78" y="801" type="line"/>
      <point x="78" y="799" type="line"/>
      <point x="134" y="799" type="line"/>
      <point x="134" y="2" type="line"/>
      <point x="38" y="2" type="line"/>
      <point x="38" y="1435" type="line"/>
      <point x="73" y="1598" type="line"/>
      <point x="136" y="1598" type="line"/>
      <point x="138" y="1600" type="line"/>
      <point x="70" y="1600" type="line"/>
      <point x="35" y="1436" type="line"/>
    </contour>
  </outline>
</glyph>
<glyph name="four.smol" format="2">
  <advance width="90"/>
  <outline>
    <contour>
      <point x="60" y="0" type="line"/>
      <point x="62" y="0" type="line"/>
      <point x="62" y="496" type="line"/>
      <point x="80" y="496" type="line"/>
      <point x="80" y="498" type="line"/>
      <point x="62" y="498" type="line"/>
      <point x="62" y="995" type="line"/>
      <point x="60" y="995" type="line"/>
      <point x="60" y="498" type="line"/>
      <point x="10" y="498" type="line"/>
      <point x="10" y="549" type="line"/>
      <point x="24" y="995" type="line"/>
      <point x="21" y="995" type="line"/>
      <point x="7" y="548" type="line"/>
      <point x="7" y="496" type="line"/>
      <point x="60" y="496" type="line"/>
    </contour>
  </outline>
</glyph>
<glyph name="three.smol" format="2">
  <advance width="113"/>
  <outline>
    <contour>
      <point x="23" y="0" type="line"/>
      <point x="87" y="0" type="line"/>
      <point x="87" y="514" type="line"/>
      <point x="63" y="514" type="line"/>
      <point x="79" y="682" type="line"/>
      <point x="79" y="995" type="line"/>
      <point x="30" y="995" type="line"/>
      <point x="30" y="651" type="line"/>
      <point x="33" y="651" type="line"/>
      <point x="33" y="993" type="line"/>
      <point x="76" y="993" type="line"/>
      <point x="76" y="682" type="line"/>
      <point x="61" y="514" type="line"/>
      <point x="45" y="514" type="line"/>
      <point x="45" y="512" type="line"/>
      <point x="84" y="512" type="line"/>
      <point x="84" y="2" type="line"/>
      <point x="26" y="2" type="line"/>
      <point x="26" y="360" type="line"/>
      <point x="23" y="360" type="line"/>
    </contour>
  </outline>
</glyph>
<glyph name="zero.smol" format="2">
  <advance width="123"/>
  <outline>
    <contour>
      <point x="29" y="0" type="line"/>
      <point x="94" y="0" type="line"/>
      <point x="94" y="995" type="line"/>
      <point x="29" y="995" type="line"/>
    </contour>
    <contour>
      <point x="31" y="1" type="line"/>
      <point x="31" y="994" type="line"/>
      <point x="92" y="994" type="line"/>
      <point x="92" y="1" type="line"/>
    </contour>
  </outline>
</glyph>
